Coordinates
version=1
nRows=11
nColumns=36
inDegrees=yes

Units are S.I. units (second, meters, Newtons, ...)
If the header above contains a line with 'inDegrees', this indicates whether rotational values are in degrees (yes) or radians (no).

endheader
time	pelvis_tilt	pelvis_list	pelvis_rotation	pelvis_tx	pelvis_ty	pelvis_tz	hip_flexion_r	hip_adduction_r	hip_rotation_r	knee_angle_r	knee_angle_r_beta	ankle_angle_r	subtalar_angle_r	mtp_angle_r	hip_flexion_l	hip_adduction_l	hip_rotation_l	knee_angle_l	knee_angle_l_beta	ankle_angle_l	subtalar_angle_l	mtp_angle_l	lumbar_extension	lumbar_bending	lumbar_rotation	arm_flex_r	arm_add_r	arm_rot_r	elbow_flex_r	pro_sup_r	arm_flex_l	arm_add_l	arm_rot_l	elbow_flex_l	pro_sup_l
      0.00400000	      1.01788881	     -6.28548563	      2.82321206	     -5.40177390	      1.08730141	      0.22935822	     37.56873096	      4.66311498	     -9.72342174	     62.62349413	      1.09298616	     -6.11710595	    -15.37707522	    -11.61983068	    -23.25276233	     -3.43518310	     -1.44579805	     15.08923278	      0.26335679	    -15.07740222	      1.91109533	    -32.77413399	    -13.89258390	      5.83058165	    -11.73555416	    -50.84060646	    -16.68506242	    -10.28022269	     93.93026762	     90.00021046	    -10.04656816	    -14.97102861	     -7.63408258	    124.53827217	     90.00021046
      0.00800000	      0.92725270	     -6.36705848	      2.85278126	     -5.38644214	      1.08940773	      0.22970164	     37.19884247	      4.76251976	     -9.92224849	     60.03196953	      1.04775552	     -6.60636457	    -14.25407524	    -10.59008519	    -23.69692674	     -3.64504581	     -1.87366674	     14.91243956	      0.26027117	    -17.18322441	      1.51790039	    -31.42862055	    -13.61424033	      5.90091417	    -11.85813585	    -51.61627820	    -16.44987449	    -10.68075729	     93.97342282	     90.00021046	    -10.28822500	    -14.84224264	     -7.41344250	    125.88765773	     90.00021046
      0.01200000	      0.92425305	     -6.36497419	      2.83810349	     -5.37072994	      1.09165336	      0.22999473	     36.62940863	      4.82983122	    -10.08091001	     57.21953482	      0.99866928	     -6.86745198	    -13.61427673	    -12.76212484	    -24.35004321	     -3.67773915	     -2.08367018	     14.48332887	      0.25278178	    -18.46918487	      1.55916282	    -28.44878329	    -13.39126011	      5.88864127	    -11.94976124	    -52.34033122	    -16.22711300	    -11.07272808	     94.06190051	     90.00021046	    -10.46800067	    -14.74284754	     -7.26012887	    127.09971738	     90.00021046
      0.01600000	      0.89347020	     -6.03013183	      2.73182181	     -5.35523705	      1.09384205	      0.23009175	     36.13029495	      4.61114174	     -9.95541322	     54.61232401	      0.95316487	     -7.15986516	    -12.45767845	    -13.26923552	    -24.80894881	     -3.23571227	     -1.90809660	     14.19563989	      0.24776066	    -21.65428491	     -0.38685498	    -35.15815097	    -13.19193199	      5.52530379	    -11.99295548	    -53.00251442	    -15.97954710	    -11.44577795	     94.04546414	     90.00021046	    -10.68827085	    -14.59881773	     -6.98027349	    128.23932702	     90.00021046
      0.02000000	      0.92921622	     -5.88325760	      2.78312555	     -5.33980874	      1.09585539	      0.23010625	     35.47117993	      4.52105498	    -10.05226051	     51.81980433	      0.90442620	     -7.43897577	    -11.54421555	    -13.80636498	    -25.27016474	     -3.11341798	     -1.88123403	     14.24733453	      0.24866290	    -22.40343235	     -0.85633273	    -30.41737397	    -13.09378892	      5.39638265	    -12.03099969	    -53.68193526	    -15.63587406	    -11.90530719	     94.04523977	     90.00021046	    -10.77618381	    -14.53556325	     -6.64420685	    129.32897426	     90.00021046
      0.02400000	      0.86255307	     -5.89635441	      2.77120851	     -5.32424411	      1.09742194	      0.23061861	     34.87808920	      4.67410541	    -10.11380973	     48.97235168	      0.85472878	     -7.74039975	    -10.53881515	    -14.53826094	    -25.52431294	     -3.24304384	     -2.36399083	     14.60664366	      0.25493402	    -22.82156741	     -0.98911720	    -22.44996219	    -12.81998288	      5.37529449	    -12.08381377	    -54.31214826	    -15.40701908	    -12.22882952	     94.08685610	     90.00021046	    -10.95187616	    -14.42717140	     -6.45569034	    130.27144310	     90.00021046
      0.02800000	      0.96808767	     -6.20419676	      2.95585113	     -5.30860268	      1.09915338	      0.23148208	     33.97608432	      5.11793924	    -10.35871985	     45.81651753	      0.79964908	     -8.11814684	     -9.57788966	    -15.24224787	    -26.00019714	     -3.86346079	     -2.98745458	     14.91901241	      0.26038589	    -22.02763035	      0.46202532	    -13.59182203	    -12.71487292	      5.64408070	    -12.24336588	    -54.86055679	    -15.15159895	    -12.49321297	     94.05630460	     90.00021046	    -11.23604074	    -14.45476985	     -6.23537350	    131.26791060	     90.00021046
      0.03200000	      0.82188253	     -5.89118169	      2.96638755	     -5.29330573	      1.10031123	      0.23136142	     33.46156107	      4.89387209	    -10.25805548	     43.08820084	      0.75203097	     -8.21180761	     -8.24743483	    -15.34075378	    -26.18709588	     -3.43812025	     -2.19831391	     15.09691896	      0.26349094	    -24.12198251	     -2.12963533	    -13.53668535	    -12.40740317	      5.34380688	    -12.34083349	    -55.39733760	    -14.93909716	    -12.85397086	     94.08323221	     90.00021046	    -11.42725576	    -14.37795231	     -6.01083016	    132.11054686	     90.00021046
      0.03600000	      0.93181578	     -5.94437835	      2.93770330	     -5.27759003	      1.10173691	      0.23226365	     32.52382097	      5.24449241	    -10.05238596	     40.06671051	      0.69929602	     -8.64463607	     -7.17414734	    -17.02316761	    -26.48865118	     -3.67988283	     -2.91065177	     15.79374658	      0.27565288	    -22.99088297	     -0.84504774	     -8.17618530	    -12.32847106	      5.32976171	    -12.28757916	    -55.89760332	    -14.68642788	    -13.11514875	     94.08019323	     90.00021046	    -11.67745842	    -14.37171141	     -5.77707624	    132.88985261	     90.00021046
      0.04000000	      0.89987935	     -5.76122144	      3.08866313	     -5.26242498	      1.10272223	      0.23239556	     31.78670704	      5.18644622	     -9.92997162	     37.19186986	      0.64912058	     -8.97719568	     -6.00170273	    -18.71599507	    -26.63569336	     -3.50570259	     -2.11651035	     16.27761478	      0.28409797	    -25.40559530	     -3.50589861	    -14.83522537	    -12.14818955	      5.15126893	    -12.46859780	    -56.31752900	    -14.46723291	    -13.37612565	     94.10470912	     90.00021046	    -11.85293861	    -14.37075795	     -5.54659387	    133.53187610	     90.00021046
      0.04400000	      1.02219779	     -5.68889095	      3.14289317	     -5.24685423	      1.10387767	      0.23299706	     30.78316191	      5.34978447	     -9.76614403	     34.20375408	      0.59696813	     -8.96990218	     -4.80214273	    -17.61567907	    -26.87546672	     -3.58404420	     -2.23798551	     17.17741482	      0.29980245	    -23.59985399	     -2.57608086	     -7.50654099	    -12.10037566	      5.03479393	    -12.50191543	    -56.68198168	    -14.26279187	    -13.57641916	     94.07155501	     90.00021046	    -12.12265796	    -14.37949196	     -5.34719357	    134.08176987	     90.00021046
